<mxfile host="app.diagrams.net" agent="Mozilla/5.0 (Windows NT 10.0; Win64; x64) AppleWebKit/537.36 (KHTML, like Gecko) Chrome/133.0.0.0 Safari/537.36" version="26.0.16">
  <diagram name="第 1 页" id="qCIMGLovxdSjHzpxvoWO">
    <mxGraphModel dx="1434" dy="972" grid="1" gridSize="10" guides="1" tooltips="1" connect="1" arrows="1" fold="1" page="1" pageScale="1" pageWidth="827" pageHeight="1169" math="0" shadow="0">
      <root>
        <mxCell id="0" />
        <mxCell id="1" parent="0" />
        <mxCell id="71Y5wNoeTz0tmSPdlZx3-5" style="edgeStyle=orthogonalEdgeStyle;rounded=0;orthogonalLoop=1;jettySize=auto;html=1;exitX=0.5;exitY=1;exitDx=0;exitDy=0;entryX=0.5;entryY=0;entryDx=0;entryDy=0;strokeColor=#004C99;" parent="1" source="71Y5wNoeTz0tmSPdlZx3-1" target="71Y5wNoeTz0tmSPdlZx3-3" edge="1">
          <mxGeometry relative="1" as="geometry" />
        </mxCell>
        <mxCell id="71Y5wNoeTz0tmSPdlZx3-6" style="edgeStyle=orthogonalEdgeStyle;rounded=0;orthogonalLoop=1;jettySize=auto;html=1;exitX=0.5;exitY=1;exitDx=0;exitDy=0;entryX=0.5;entryY=0;entryDx=0;entryDy=0;strokeColor=#004C99;" parent="1" source="71Y5wNoeTz0tmSPdlZx3-1" target="71Y5wNoeTz0tmSPdlZx3-2" edge="1">
          <mxGeometry relative="1" as="geometry" />
        </mxCell>
        <mxCell id="71Y5wNoeTz0tmSPdlZx3-1" value="&lt;font style=&quot;font-size: 18px; color: rgb(0, 76, 153);&quot;&gt;项目经理&lt;/font&gt;" style="rounded=0;whiteSpace=wrap;html=1;strokeColor=#004C99;fillColor=#dae8fc;gradientColor=#FFFFFF;" parent="1" vertex="1">
          <mxGeometry x="340" y="60" width="120" height="50" as="geometry" />
        </mxCell>
        <mxCell id="5rPSLc9CSzds5B-phwLk-1" style="edgeStyle=orthogonalEdgeStyle;rounded=0;orthogonalLoop=1;jettySize=auto;html=1;exitX=0.5;exitY=1;exitDx=0;exitDy=0;entryX=0.5;entryY=0;entryDx=0;entryDy=0;strokeColor=#004C99;" edge="1" parent="1" source="71Y5wNoeTz0tmSPdlZx3-2" target="71Y5wNoeTz0tmSPdlZx3-25">
          <mxGeometry relative="1" as="geometry" />
        </mxCell>
        <mxCell id="5rPSLc9CSzds5B-phwLk-2" style="edgeStyle=orthogonalEdgeStyle;rounded=0;orthogonalLoop=1;jettySize=auto;html=1;exitX=0.5;exitY=1;exitDx=0;exitDy=0;entryX=0.5;entryY=0;entryDx=0;entryDy=0;strokeColor=#004C99;" edge="1" parent="1" source="71Y5wNoeTz0tmSPdlZx3-2" target="71Y5wNoeTz0tmSPdlZx3-26">
          <mxGeometry relative="1" as="geometry" />
        </mxCell>
        <mxCell id="5rPSLc9CSzds5B-phwLk-8" style="edgeStyle=orthogonalEdgeStyle;rounded=0;orthogonalLoop=1;jettySize=auto;html=1;exitX=0.5;exitY=1;exitDx=0;exitDy=0;entryX=0.5;entryY=0;entryDx=0;entryDy=0;strokeColor=#004C99;" edge="1" parent="1" source="71Y5wNoeTz0tmSPdlZx3-2" target="71Y5wNoeTz0tmSPdlZx3-28">
          <mxGeometry relative="1" as="geometry" />
        </mxCell>
        <mxCell id="71Y5wNoeTz0tmSPdlZx3-2" value="&lt;font style=&quot;font-size: 18px; color: rgb(0, 76, 153);&quot;&gt;项目总工程师&lt;/font&gt;" style="rounded=0;whiteSpace=wrap;html=1;strokeColor=#004C99;fillColor=#dae8fc;gradientColor=#FFFFFF;" parent="1" vertex="1">
          <mxGeometry x="245" y="160" width="120" height="50" as="geometry" />
        </mxCell>
        <mxCell id="5rPSLc9CSzds5B-phwLk-4" style="edgeStyle=orthogonalEdgeStyle;rounded=0;orthogonalLoop=1;jettySize=auto;html=1;exitX=0.5;exitY=1;exitDx=0;exitDy=0;strokeColor=#004C99;" edge="1" parent="1" source="71Y5wNoeTz0tmSPdlZx3-3" target="71Y5wNoeTz0tmSPdlZx3-27">
          <mxGeometry relative="1" as="geometry" />
        </mxCell>
        <mxCell id="71Y5wNoeTz0tmSPdlZx3-3" value="&lt;font style=&quot;font-size: 18px; color: rgb(0, 76, 153);&quot;&gt;技术负责人&lt;/font&gt;" style="rounded=0;whiteSpace=wrap;html=1;strokeColor=#004C99;fillColor=#dae8fc;gradientColor=#FFFFFF;" parent="1" vertex="1">
          <mxGeometry x="435" y="160" width="120" height="50" as="geometry" />
        </mxCell>
        <mxCell id="71Y5wNoeTz0tmSPdlZx3-25" value="&lt;font color=&quot;#004c99&quot;&gt;&lt;span style=&quot;font-size: 18px;&quot;&gt;大模型算法研发组&lt;/span&gt;&lt;/font&gt;" style="rounded=0;whiteSpace=wrap;html=1;strokeColor=#004C99;fillColor=#dae8fc;gradientColor=#FFFFFF;" parent="1" vertex="1">
          <mxGeometry x="105" y="280" width="50" height="160" as="geometry" />
        </mxCell>
        <mxCell id="71Y5wNoeTz0tmSPdlZx3-26" value="&lt;font color=&quot;#004c99&quot;&gt;&lt;span style=&quot;font-size: 18px;&quot;&gt;大模型软件开发组&lt;/span&gt;&lt;/font&gt;" style="rounded=0;whiteSpace=wrap;html=1;strokeColor=#004C99;fillColor=#dae8fc;gradientColor=#FFFFFF;" parent="1" vertex="1">
          <mxGeometry x="280" y="280" width="50" height="160" as="geometry" />
        </mxCell>
        <mxCell id="71Y5wNoeTz0tmSPdlZx3-27" value="&lt;font color=&quot;#004c99&quot;&gt;&lt;span style=&quot;font-size: 18px;&quot;&gt;大模型训练及数据集开发组&lt;/span&gt;&lt;/font&gt;" style="rounded=0;whiteSpace=wrap;html=1;strokeColor=#004C99;fillColor=#dae8fc;gradientColor=#FFFFFF;" parent="1" vertex="1">
          <mxGeometry x="470" y="280" width="50" height="160" as="geometry" />
        </mxCell>
        <mxCell id="71Y5wNoeTz0tmSPdlZx3-28" value="&lt;font color=&quot;#004c99&quot;&gt;&lt;span style=&quot;font-size: 18px;&quot;&gt;大模型场景应用建设组&lt;/span&gt;&lt;/font&gt;" style="rounded=0;whiteSpace=wrap;html=1;strokeColor=#004C99;fillColor=#dae8fc;gradientColor=#FFFFFF;" parent="1" vertex="1">
          <mxGeometry x="645" y="280" width="50" height="160" as="geometry" />
        </mxCell>
      </root>
    </mxGraphModel>
  </diagram>
</mxfile>
